<svg xmlns="http://www.w3.org/2000/svg" width="16" height="16" viewBox="0 0 16 16">
  <path id="Icon_awesome-behance-square" data-name="Icon awesome-behance-square" d="M6.661,11.571c0,.689-.5.907-1.114.907H3.936V10.589H5.579C6.243,10.593,6.661,10.868,6.661,11.571ZM6.386,8.632C6.386,8,5.9,7.85,5.354,7.85H3.939v1.6H5.464c.539,0,.921-.236.921-.818Zm4.725.829a1.065,1.065,0,0,0-1.132,1.061H12.2A1.018,1.018,0,0,0,11.111,9.461ZM16,3.964V16.536a1.715,1.715,0,0,1-1.714,1.714H1.714A1.715,1.715,0,0,1,0,16.536V3.964A1.715,1.715,0,0,1,1.714,2.25H14.286A1.715,1.715,0,0,1,16,3.964ZM9.7,7.714h2.779V7.039H9.7ZM8.168,11.654a1.776,1.776,0,0,0-1.25-1.843,1.333,1.333,0,0,0,.936-1.321c0-1.364-1.018-1.7-2.193-1.7H2.429V13.65H5.754C7,13.643,8.168,13.046,8.168,11.654Zm5.4-.529a2.441,2.441,0,0,0-2.414-2.693,2.493,2.493,0,0,0-2.539,2.629,2.42,2.42,0,0,0,2.539,2.607A2.214,2.214,0,0,0,13.482,12h-1.2a1.13,1.13,0,0,1-1.079.646,1.121,1.121,0,0,1-1.218-1.261h3.579C13.564,11.3,13.571,11.211,13.571,11.125Z" transform="translate(0 -2.25)" fill="#09fbf3"/>
</svg>
