<svg xmlns="http://www.w3.org/2000/svg" width="16.41" height="16" viewBox="0 0 16.41 16">
  <path id="Icon_awesome-github" data-name="Icon awesome-github" d="M5.489,13.446c0,.066-.076.119-.172.119s-.185-.043-.185-.119.076-.119.172-.119S5.489,13.37,5.489,13.446ZM4.46,13.3c-.023.066.043.142.142.162a.155.155,0,0,0,.205-.066c.02-.066-.043-.142-.142-.172A.17.17,0,0,0,4.46,13.3Zm1.462-.056c-.1.023-.162.086-.152.162s.1.109.2.086.162-.086.152-.152S6.018,13.231,5.922,13.241ZM8.1.563A7.933,7.933,0,0,0,0,8.635a8.3,8.3,0,0,0,5.608,7.914c.423.076.572-.185.572-.4s-.01-1.337-.01-2.031c0,0-2.316.5-2.8-.986,0,0-.377-.963-.92-1.211,0,0-.758-.519.053-.51a1.746,1.746,0,0,1,1.277.854,1.749,1.749,0,0,0,2.412.691,1.839,1.839,0,0,1,.529-1.115C4.87,11.636,3,11.368,3,8.185a2.507,2.507,0,0,1,.781-1.949A3.126,3.126,0,0,1,3.871,3.99c.691-.215,2.283.893,2.283.893a7.816,7.816,0,0,1,4.155,0S11.9,3.772,12.592,3.99a3.124,3.124,0,0,1,.086,2.246,2.572,2.572,0,0,1,.854,1.949c0,3.193-1.949,3.447-3.8,3.656a1.957,1.957,0,0,1,.562,1.535c0,1.115-.01,2.495-.01,2.766,0,.215.152.476.572.4A8.218,8.218,0,0,0,16.41,8.635,8.112,8.112,0,0,0,8.1.563ZM3.216,11.973c-.043.033-.033.109.023.172s.129.076.172.033.033-.109-.023-.172S3.259,11.93,3.216,11.973Zm-.357-.268c-.023.043.01.1.076.129a.1.1,0,0,0,.142-.023c.023-.043-.01-.1-.076-.129S2.882,11.672,2.859,11.705ZM3.93,12.883c-.053.043-.033.142.043.205s.172.086.215.033.023-.142-.043-.205S3.973,12.83,3.93,12.883ZM3.553,12.4c-.053.033-.053.119,0,.2s.142.109.185.076a.151.151,0,0,0,0-.205C3.692,12.387,3.606,12.354,3.553,12.4Z" transform="translate(0 -0.563)" fill="#09fbf3"/>
</svg>
