<?xml version="1.0" encoding="utf-8"?>
<!-- Generator: Adobe Illustrator 23.0.1, SVG Export Plug-In . SVG Version: 6.00 Build 0)  -->
<svg version="1.1" id="logo_x5F_lyes" xmlns="http://www.w3.org/2000/svg" xmlns:xlink="http://www.w3.org/1999/xlink" x="0px"
	 y="0px" viewBox="0 0 720.8 798.5" style="enable-background:new 0 0 720.8 798.5;" xml:space="preserve">
<style type="text/css">
	.st0{fill:#09FBF3;}
</style>
<g id="Logo">
	<path class="st0" d="M497.8,588.9V484c0-5.8-2.4-11.2-7.1-16.3l-92.6-93c-4.4-4.3-10.2-6.5-17.4-6.5h-28.3v91.3h-65.4V209.5h65.4
		v94h28.3c25.1,0,46.5,8.9,64.3,26.6l88.8,90.8c8.7,9.1,15.7,18.8,21,29.4c5.3,10.5,7.9,21.7,7.9,33.7v104.9H497.8z M287.1,588.9
		c-17.8,0-34.6-2.7-50.4-8.2c-15.8-5.4-29.4-12.8-40.8-22c-11.4-9.2-20.5-20.2-27.2-32.9c-6.7-12.7-10.1-26.3-10.1-40.8V208.9h64.8
		v276.2c0,5.4,1.6,10.4,4.9,15c3.3,4.5,7.8,8.6,13.6,12.2c5.8,3.6,12.6,6.4,20.4,8.4c7.8,2,16.1,3,24.8,3h128.8
		c10.1,0,18.2,8.1,18.2,18.2v47H287.1z"/>
	<path class="st0" d="M63.4,181.8c-24.1,13.9-39,39.8-39,67.6l0.3,298.3c0,27.7,14.9,53.6,38.9,67.4l258.2,149.4
		c24.1,13.9,54,13.9,78.1,0L657.5,616c24.1-13.9,39-39.8,39-67.6L696.2,250c0-27.7-14.9-53.6-38.9-67.4L399,33.2
		c-24.1-13.9-54-13.9-78.1,0L63.4,181.8 M52.4,162.8L310,14.1c31-17.9,69.1-17.9,100.1,0l258.2,149.4c30.9,17.9,49.9,50.8,49.9,86.5
		l0.3,298.3c0,35.8-19,68.8-50,86.7L410.9,783.7c-31,17.9-69.1,17.9-100.1,0L52.6,634.3c-30.9-17.9-49.9-50.8-49.9-86.5L2.4,249.5
		C2.4,213.7,21.4,180.7,52.4,162.8z"/>
</g>
</svg>
